<svg width="133" height="37" viewBox="0 0 133 37" fill="none" xmlns="http://www.w3.org/2000/svg">
<g style="mix-blend-mode:hard-light" clip-path="url(#clip0_314_23930)">
<g filter="url(#filter0_f_314_23930)">
<ellipse cx="38.2227" cy="32.8184" rx="6.69924" ry="3.34962" fill="#4F4766"/>
</g>
<path d="M51.686 13.8054C51.686 24.2809 38.2219 33.2599 38.2219 33.2599C38.2219 33.2599 24.7578 24.2809 24.7578 13.8054C24.7578 10.2333 26.1763 6.80758 28.7014 4.28174C31.2264 1.75591 34.651 0.336914 38.2219 0.336914C41.7928 0.336914 45.2174 1.75591 47.7424 4.28174C50.2675 6.80758 51.686 10.2333 51.686 13.8054Z" fill="url(#paint0_linear_314_23930)"/>
<circle cx="38.2218" cy="13.2474" r="8.51669" fill="url(#paint1_linear_314_23930)"/>
<path fill-rule="evenodd" clip-rule="evenodd" d="M34.9877 13.0113C35.2457 13.0543 36.0196 13.4835 36.1916 13.6553C36.1916 13.6982 36.1916 13.6982 36.1916 13.7411C36.1916 13.8699 36.1056 14.4279 36.0626 14.5567C35.9766 15.0719 36.1486 15.2865 35.9766 15.8446C35.9336 15.9733 35.9336 16.1021 35.8906 16.2309C35.6757 16.8319 35.6757 17.2612 35.7617 17.9051C35.8047 18.0768 35.8047 18.1626 35.8477 18.2914C35.8906 18.5061 35.9336 18.7207 35.9336 18.9353V18.8924C36.0196 18.5061 36.1486 17.9909 36.3206 17.6904C36.4066 17.5187 36.7935 16.7031 36.9225 16.7031C37.0085 16.6602 36.9655 16.6172 37.0945 16.5314L37.3095 16.3597C37.3525 16.3168 37.3525 16.3168 37.3955 16.2738L37.6534 15.9733C37.7394 15.8875 38.0834 15.5441 38.2124 15.4582L38.3844 15.3294C38.4274 15.2865 38.5133 15.2865 38.5563 15.2006C38.7713 14.986 39.0293 14.7714 39.2013 14.4709C39.2443 14.428 39.3732 14.1275 39.3732 14.0845C39.3732 13.784 38.9433 13.7411 38.7283 13.6553C38.5993 13.6123 38.5133 13.5265 38.3414 13.4406C38.1694 13.3548 38.1694 13.3118 38.1694 13.0972C38.1694 12.9255 38.0834 12.8826 38.0834 12.625C38.0834 12.4962 38.2554 12.4104 38.3414 12.3245C38.5993 12.0669 38.6423 12.024 38.7713 11.6806C39.0293 11.1225 39.4592 11.0796 39.4592 10.6933C39.4592 10.5645 39.4162 10.264 39.5022 10.1781C39.5882 10.1352 39.6742 10.264 39.7172 10.3069C39.8462 10.5216 40.1042 10.7791 40.2761 10.9508C40.4051 11.0796 40.8781 11.7235 40.9641 11.8952C41.179 12.2816 41.437 12.8396 41.566 13.3118C41.609 13.4406 41.609 13.5265 41.652 13.6553C41.695 13.8699 41.781 14.0845 41.824 14.2992C41.91 14.6855 42.0819 15.2436 41.9959 15.7158C41.953 15.9733 41.953 16.188 41.867 16.4026C41.824 16.6172 41.781 16.8319 41.738 17.0465C41.695 17.1753 41.695 17.2612 41.652 17.347C41.566 17.6475 41.523 17.948 41.394 18.2914C41.265 18.5061 41.222 18.7207 41.0931 18.8924L41.394 18.5919C41.437 18.5061 41.48 18.4631 41.523 18.3343C41.566 18.2485 41.609 18.1626 41.652 18.0768C41.953 17.6475 41.9959 17.4329 42.2109 17.0465C42.2969 16.8319 42.3399 16.6602 42.4259 16.4455C42.5119 16.145 42.7699 15.5011 42.7269 15.2006C42.6839 14.7714 42.3829 14.4709 42.2969 14.0416C42.2539 13.9128 42.2539 13.827 42.2539 13.6982C42.2109 13.5694 42.2109 13.4835 42.1679 13.3977C42.1249 13.1831 42.0819 12.9684 42.0389 12.7109C41.953 12.2816 41.738 11.9382 41.652 11.5518C41.609 11.3372 41.566 11.1655 41.437 10.9508C41.308 10.7362 41.222 10.6933 41.0931 10.5216C40.8781 10.2211 41.0931 10.4357 40.7491 10.0923C40.4481 9.83472 40.4051 9.87765 40.3621 9.66301C40.3191 9.36252 40.3191 9.31959 40.1902 9.06203C40.1042 8.89032 39.9322 8.76154 39.8032 8.63275C39.4592 8.28934 39.2013 8.20348 38.7283 8.11763C38.4274 8.0747 38.2984 8.16055 38.0404 8.03177C37.7394 7.90299 37.7824 8.16055 37.4815 7.98884C37.3095 7.90299 37.1375 7.81713 36.9655 7.73128C36.7935 7.64543 36.6646 7.55957 36.4066 7.55957C36.3636 7.68835 36.3206 7.68835 36.4066 7.94592C36.4496 8.16055 36.6646 8.46105 36.3636 8.63275C36.2776 8.71861 36.1486 8.67568 36.0196 8.76154C35.8906 8.84739 35.7617 8.97617 35.6327 9.10496C35.5897 9.14788 35.5467 9.19081 35.5467 9.23374C35.2887 9.53423 35.3317 9.4913 35.1167 9.79179C34.9877 10.0064 34.9448 10.1781 34.6868 10.3069C34.4288 10.4786 34.2568 10.4786 33.9989 10.6074C33.7839 10.6933 33.5689 10.8221 33.3109 10.9079C33.182 11.0367 32.838 11.1225 32.666 11.2513C32.709 11.3801 32.752 11.5089 32.795 11.6377C32.838 11.7665 32.881 11.8952 32.967 11.9811C33.182 12.1957 33.5259 12.7538 33.6549 12.8396C33.6979 12.8826 33.7839 12.8826 33.8699 12.8826C34.1278 12.9255 34.5578 12.8396 34.7728 12.9255C34.8158 12.9684 34.9018 13.0113 34.9877 13.0113Z" fill="white"/>
<path d="M54.3125 7.82915L57.141 6.11719H62.252V9.04489H57.3394V11.8485H62.252V14.7514H57.141L54.3125 13.0643V7.82915ZM71.4073 13.5605L68.4796 11.8485H63.3685V14.7514H68.2811V17.5799H63.4678V20.3835H68.4796L71.4073 18.6964V13.5605ZM57.4387 15.8679V17.5799H62.252V20.3835H57.2154L54.3125 18.6964V15.8679H57.4387ZM71.4073 10.732V7.82915L68.4796 6.11719H63.3685V9.04489H68.2811V10.732H71.4073Z" fill="#EDF3FF"/>
<path d="M90.9857 8.92083H83.8401V20.3835H80.4162V8.92083H73.8909V6.11719H90.9857V8.92083Z" fill="#EDF3FF"/>
<path d="M93.4247 7.82915L96.2532 6.11719H101.364V8.92083L96.5509 8.92083V11.8485H101.364V14.677H96.5509V20.3835H93.4247V7.82915ZM110.52 7.82915L107.592 6.11719L102.481 6.11719V8.92083H107.393V11.8485L102.481 11.8485V14.677H107.393V20.3835H110.52V7.82915Z" fill="#EDF3FF"/>
<path d="M114.976 6.11719H118.103V17.4806H122.817V20.3835H114.976V6.11719ZM124.132 17.4806V20.3835H132.071V17.4806H124.132Z" fill="#EDF3FF"/>
<path d="M60.1348 32.6806H64.7772V31.1588H61.9212V29.593H64.3251V28.0712H61.9212V26.5054H64.7551V24.9836H60.1348V32.6806Z" fill="#A13DA1"/>
<path d="M66.3806 32.6806H68.167V30.0561H70.7253L71.7729 29.0085V26.0312L70.7253 24.9836H66.3806V32.6806ZM68.167 28.5454V26.5054H69.9865V28.5454H68.167Z" fill="#A13DA1"/>
<path d="M72.9818 24.9836V32.6806H74.7572V24.9836H72.9818Z" fill="#A13DA1"/>
<path d="M77.3517 32.6806H80.7922L81.8398 31.633V30.0671H80.0534V31.1699H78.0905V26.5054H80.0534V27.6081H81.8398V26.0422L80.7811 24.9836H77.3517L76.3041 26.0312V31.633L77.3517 32.6806Z" fill="#A13DA1"/>
<path d="M86.4434 32.8185H88.3069L88.748 31.3078H91.2953L91.7364 32.8185H93.611L91.196 25.1216H88.8473L86.4434 32.8185ZM89.2112 29.7861L90.0272 27.0844L90.8322 29.7861H89.2112Z" fill="#000AFF"/>
<path d="M94.4341 32.8185V25.1216H96.9042L98.448 29.5435V25.1216H100.212V32.8185H97.7423L96.1985 28.3525V32.8185H94.4341Z" fill="#000AFF"/>
<path d="M101.972 25.1216V32.8185H103.748V25.1216H101.972Z" fill="#000AFF"/>
<path d="M105.515 25.1216H107.941L109.209 29.356L110.488 25.1216H112.903V32.8185H111.128V28.3525L109.871 32.8185H108.603L107.29 28.3525V32.8185H105.515V25.1216Z" fill="#000AFF"/>
<path d="M113.731 32.8185H115.595L116.036 31.3078H118.583L119.024 32.8185H120.899L118.484 25.1216H116.135L113.731 32.8185ZM116.499 29.7861L117.315 27.0844L118.12 29.7861H116.499Z" fill="#000AFF"/>
<path d="M123.497 31.2968V25.1216H121.722V32.8185H126.364V31.2968H123.497Z" fill="#000AFF"/>
<path d="M128.353 32.8185H131.794L132.841 31.7599V29.2568L131.805 28.2092H129.092V26.6433H131.066V27.3932H132.841V26.1802L131.794 25.1216H128.353L127.306 26.1692V28.6833L128.353 29.7309H131.066V31.2968H129.092V30.5469H127.306V31.7709L128.353 32.8185Z" fill="#000AFF"/>
<path d="M-0.794922 1.36182L9.92344 1.36182V5.10001H3.50565L3.50565 9.00361H9.92344L9.92344 12.8741H3.50565L3.50565 20.3836H-0.794922L-0.794922 1.36182ZM22.1305 10.6246V3.64443L18.2599 1.36182L11.4121 1.36182V5.10001H17.8299V9.00361H11.4121L11.4121 12.8741H18.2599L22.1305 10.6246Z" fill="#EDF3FF"/>
</g>
<defs>
<filter id="filter0_f_314_23930" x="16.5234" y="14.4688" width="43.3984" height="36.6992" filterUnits="userSpaceOnUse" color-interpolation-filters="sRGB">
<feFlood flood-opacity="0" result="BackgroundImageFix"/>
<feBlend mode="normal" in="SourceGraphic" in2="BackgroundImageFix" result="shape"/>
<feGaussianBlur stdDeviation="7.5" result="effect1_foregroundBlur_314_23930"/>
</filter>
<linearGradient id="paint0_linear_314_23930" x1="16.1399" y1="16.7981" x2="50.4621" y2="16.7981" gradientUnits="userSpaceOnUse">
<stop stop-color="#FF1DB2"/>
<stop offset="1" stop-color="#5B4796"/>
</linearGradient>
<linearGradient id="paint1_linear_314_23930" x1="29.7051" y1="13.2472" x2="46.7385" y2="13.2472" gradientUnits="userSpaceOnUse">
<stop stop-color="#4D3545"/>
<stop offset="1" stop-color="#483381"/>
</linearGradient>
<clipPath id="clip0_314_23930">
<rect width="133.636" height="35.8312" fill="white" transform="translate(-0.794922 0.336914)"/>
</clipPath>
</defs>
</svg>
